<?xml version="1.0" encoding="UTF-8"?>
<svg width="44px" height="44px" viewBox="0 0 44 44" version="1.1" xmlns="http://www.w3.org/2000/svg" xmlns:xlink="http://www.w3.org/1999/xlink">
    <!-- Generator: Sketch 47.1 (45422) - http://www.bohemiancoding.com/sketch -->
    <title>YouTube</title>
    <desc>Created with Sketch.</desc>
    <defs></defs>
    <g id="Page-1" stroke="none" stroke-width="1" fill="none" fill-rule="evenodd">
        <g id="YouTube">
            <path d="M43.0804132,11.9090874 C42.5744413,10.0163106 41.0836893,8.52519643 39.1905503,8.0192245 C35.7592131,7.0999999 21.9998189,7.0999999 21.9998189,7.0999999 C21.9998189,7.0999999 8.24078693,7.0999999 4.80944973,8.0192245 C2.91631066,8.52519643 1.42555871,10.0163106 0.91958678,11.9090874 C0,15.3407868 0,22.4997283 0,22.4997283 C0,22.4997283 0,29.6590319 0.91958678,33.0903691 C1.42555871,34.983146 2.91631066,36.4746223 4.80944973,36.980232 C8.24078693,37.8998188 21.9998189,37.8998188 21.9998189,37.8998188 C21.9998189,37.8998188 35.7592131,37.8998188 39.1905503,36.980232 C41.0836893,36.4746223 42.5744413,34.983146 43.0804132,33.0903691 C44,29.6590319 44,22.4997283 44,22.4997283 C44,22.4997283 44,15.3407868 43.0804132,11.9090874" id="background" fill="#FF0000"></path>
            <polyline id="triangle" fill="#FFFFFE" points="18 29.2391465 29.4646519 22.6199365 18 16 18 29.2391465"></polyline>
        </g>
    </g>
</svg>